<?xml version="1.0" encoding="UTF-8"?>
<!DOCTYPE svg PUBLIC "-//W3C//DTD SVG 1.1//EN" "http://www.w3.org/Graphics/SVG/1.1/DTD/svg11.dtd">
<svg xmlns="http://www.w3.org/2000/svg" version="1.1" width="278px" height="100px" style="shape-rendering:geometricPrecision; text-rendering:geometricPrecision; image-rendering:optimizeQuality; fill-rule:evenodd; clip-rule:evenodd" xmlns:xlink="http://www.w3.org/1999/xlink">
<g><path style="opacity:1" fill="#efe4e4" d="M -0.5,-0.5 C 92.1667,-0.5 184.833,-0.5 277.5,-0.5C 277.5,32.8333 277.5,66.1667 277.5,99.5C 184.833,99.5 92.1667,99.5 -0.5,99.5C -0.5,66.1667 -0.5,32.8333 -0.5,-0.5 Z"/></g>
<g><path style="opacity:1" fill="#3b3c3c" d="M 26.5,19.5 C 33.175,19.3337 39.8417,19.5004 46.5,20C 47.3366,21.0113 47.67,22.1779 47.5,23.5C 40.1667,23.5 32.8333,23.5 25.5,23.5C 25.4326,22.0413 25.7659,20.7079 26.5,19.5 Z"/></g>
<g><path style="opacity:1" fill="#333535" d="M 121.5,21.5 C 121.5,31.5 121.5,41.5 121.5,51.5C 120.791,52.404 119.791,52.7373 118.5,52.5C 118.5,41.8333 118.5,31.1667 118.5,20.5C 119.791,20.2627 120.791,20.596 121.5,21.5 Z"/></g>
<g><path style="opacity:1" fill="#434444" d="M 146.5,19.5 C 147.496,19.4142 148.329,19.7476 149,20.5C 149.667,30.8333 149.667,41.1667 149,51.5C 148,52.8333 147,52.8333 146,51.5C 145.192,40.7568 145.358,30.0901 146.5,19.5 Z"/></g>
<g><path style="opacity:1" fill="#404141" d="M 169.5,19.5 C 170.496,19.4142 171.329,19.7476 172,20.5C 172.667,30.5 172.667,40.5 172,50.5C 169.724,53.0636 167.724,52.7303 166,49.5C 162.724,43.8918 159.057,38.5585 155,33.5C 153.991,31.9751 153.491,30.3084 153.5,28.5C 154.822,28.33 155.989,28.6634 157,29.5C 160.276,35.1082 163.943,40.4415 168,45.5C 168.195,36.7557 168.695,28.089 169.5,19.5 Z"/></g>
<g><path style="opacity:1" fill="#363838" d="M 242.5,20.5 C 242.5,23.1667 242.5,25.8333 242.5,28.5C 244.167,28.5 245.833,28.5 247.5,28.5C 248.404,29.209 248.737,30.209 248.5,31.5C 246.5,31.5 244.5,31.5 242.5,31.5C 242.334,35.8461 242.501,40.1794 243,44.5C 244,46.8333 245.667,48.5 248,49.5C 248.483,50.448 248.649,51.448 248.5,52.5C 244.438,52.2759 241.605,50.2759 240,46.5C 239.5,37.5062 239.334,28.5062 239.5,19.5C 240.791,19.2627 241.791,19.596 242.5,20.5 Z"/></g>
<g><path style="opacity:1" fill="#3b3d3d" d="M 57.5,27.5 C 63.9412,26.4761 69.1079,28.4761 73,33.5C 74.4155,39.7145 74.9155,46.0478 74.5,52.5C 73.5,52.5 72.5,52.5 71.5,52.5C 71.719,51.325 71.3857,50.325 70.5,49.5C 63.7178,54.0475 57.5512,53.3808 52,47.5C 48.5722,39.1691 50.4055,32.5024 57.5,27.5 Z"/></g>
<g><path style="opacity:1" fill="#3e3f3f" d="M 123.5,40.5 C 123.5,39.5 123.5,38.5 123.5,37.5C 126.268,34.229 129.268,31.0623 132.5,28C 133.448,27.5172 134.448,27.3505 135.5,27.5C 133.979,32.0133 131.312,35.8467 127.5,39C 130.667,42.1667 133.833,45.3333 137,48.5C 137.925,51.1341 137.091,52.3008 134.5,52C 130.63,48.2977 126.963,44.4643 123.5,40.5 Z"/></g>
<g><path style="opacity:1" fill="#3a3c3c" d="M 189.5,27.5 C 200.079,26.2669 205.413,30.7669 205.5,41C 198.842,41.4996 192.175,41.6663 185.5,41.5C 186.941,48.0506 190.941,50.2173 197.5,48C 198.978,45.9614 200.978,45.1281 203.5,45.5C 203.099,49.0698 201.099,51.2364 197.5,52C 185.191,53.3552 180.024,47.8552 182,35.5C 183.69,31.9791 186.19,29.3124 189.5,27.5 Z"/></g>
<g><path style="opacity:1" fill="#3c3e3e" d="M 218.5,27.5 C 224.468,26.4588 227.801,28.7921 228.5,34.5C 226.641,34.5391 225.308,33.7058 224.5,32C 222.231,31.2419 220.064,31.4086 218,32.5C 217.837,34.3867 218.671,35.8867 220.5,37C 225.666,37.5104 229,40.177 230.5,45C 228.421,52.5422 223.755,54.5422 216.5,51C 214.299,49.3155 213.633,47.3155 214.5,45C 216.892,46.1217 219.392,47.2884 222,48.5C 226.26,48.6234 227.426,46.79 225.5,43C 221.637,41.8189 218.137,39.9856 215,37.5C 213.581,33.0823 214.748,29.7489 218.5,27.5 Z"/></g>
<g><path style="opacity:1" fill="#928e8e" d="M 242.5,20.5 C 243.468,22.6074 243.802,24.9407 243.5,27.5C 245.099,27.2322 246.432,27.5655 247.5,28.5C 245.833,28.5 244.167,28.5 242.5,28.5C 242.5,25.8333 242.5,23.1667 242.5,20.5 Z"/></g>
<g><path style="opacity:1" fill="#383939" d="M 35.5,27.5 C 36.4959,27.4142 37.3292,27.7476 38,28.5C 38.6667,36.1667 38.6667,43.8333 38,51.5C 37,52.8333 36,52.8333 35,51.5C 34.2004,43.4211 34.3671,35.4211 35.5,27.5 Z"/></g>
<g><path style="opacity:1" fill="#cec3c0" d="M 92.5,27.5 C 96.5546,27.1758 100.555,27.5091 104.5,28.5C 107.969,31.4377 109.136,35.1044 108,39.5C 102.557,29.7177 96.2238,29.051 89,37.5C 90.1072,44.1466 93.2739,45.1466 98.5,40.5C 99.5,40.8333 100.167,41.5 100.5,42.5C 98.2498,46.4592 94.9165,47.9592 90.5,47C 87.6782,44.3441 85.3448,41.3441 83.5,38C 86.3222,34.3447 89.3222,30.8447 92.5,27.5 Z"/></g>
<g><path style="opacity:1" fill="#ebe1e1" d="M 58.5,31.5 C 68.1561,30.657 71.9895,34.9903 70,44.5C 63.855,50.3152 58.5216,49.6485 54,42.5C 53.3188,37.8713 54.8188,34.2046 58.5,31.5 Z"/></g>
<g><path style="opacity:1" fill="#e6dcdc" d="M 189.5,31.5 C 196.112,29.7942 200.112,32.1276 201.5,38.5C 196.167,38.5 190.833,38.5 185.5,38.5C 185.961,35.6967 187.295,33.3634 189.5,31.5 Z"/></g>
<g><path style="opacity:1" fill="#cec3c0" d="M 95.5,33.5 C 97.5273,33.3379 99.5273,33.5045 101.5,34C 104.026,37.026 106.36,40.1927 108.5,43.5C 105.683,46.8178 102.683,49.9845 99.5,53C 88.9694,56.6345 83.8028,53.1345 84,42.5C 90.1511,51.6589 96.6511,51.8256 103.5,43C 102.359,40.6921 100.692,38.8587 98.5,37.5C 96.5717,39.5781 94.405,40.2448 92,39.5C 91.3333,38.8333 91.3333,38.1667 92,37.5C 93.3756,36.2949 94.5423,34.9616 95.5,33.5 Z"/></g>
<g><path style="opacity:1" fill="#a39d9d" d="M 121.5,21.5 C 122.167,26.8333 122.833,32.1667 123.5,37.5C 123.5,38.5 123.5,39.5 123.5,40.5C 122.833,44.1667 122.167,47.8333 121.5,51.5C 121.5,41.5 121.5,31.5 121.5,21.5 Z"/></g>
<g><path style="opacity:1" fill="#9f9a9a" d="M 140.5,66.5 C 141.167,69.1667 141.833,71.8333 142.5,74.5C 142.217,75.2891 141.717,75.9558 141,76.5C 140.502,73.1832 140.335,69.8499 140.5,66.5 Z"/></g>
<g><path style="opacity:1" fill="#434444" d="M 104.5,68.5 C 110.453,67.0383 112.787,67.0383 111.5,68.5C 110.833,87.1667 110.167,87.1667 109.5,68.5C 107.833,68.5 106.167,68.5 104.5,68.5 Z"/></g>
<g><path style="opacity:1" fill="#464747" d="M 186.5,68.5 C 187.404,69.209 187.737,70.209 187.5,71.5C 191.5,71.8333 191.5,72.1667 187.5,72.5C 187.336,75.1873 187.503,77.854 188,80.5C 188.75,81.1258 189.584,81.6258 190.5,82C 188.633,82.7112 187.133,82.2112 186,80.5C 185.782,77.5738 185.282,74.7405 184.5,72C 185.823,71.1841 186.489,70.0174 186.5,68.5 Z"/></g>
<g><path style="opacity:1" fill="#494949" d="M 201.5,74.5 C 199.492,76.0826 197.159,77.0826 194.5,77.5C 194.414,78.4959 194.748,79.3292 195.5,80C 197.5,80.3333 199.5,80.6667 201.5,81C 196.438,83.7873 193.438,82.2873 192.5,76.5C 193.193,71.8487 195.859,70.3487 200.5,72C 201.252,72.6708 201.586,73.5041 201.5,74.5 Z"/></g>
<g><path style="opacity:1" fill="#e3d9d9" d="M 195.5,72.5 C 196.833,72.5 198.167,72.5 199.5,72.5C 199.5,73.5 199.5,74.5 199.5,75.5C 197.712,75.7852 196.045,75.4519 194.5,74.5C 194.863,73.8165 195.196,73.1499 195.5,72.5 Z"/></g>
<g><path style="opacity:1" fill="#464747" d="M 140.5,66.5 C 140.335,69.8499 140.502,73.1832 141,76.5C 141.717,75.9558 142.217,75.2891 142.5,74.5C 148.472,70.4903 148.805,70.9903 143.5,76C 148.689,83.6436 148.022,84.1436 141.5,77.5C 140.702,79.0777 140.202,80.7444 140,82.5C 139.183,76.9836 139.349,71.6503 140.5,66.5 Z"/></g>
<g><path style="opacity:1" fill="#565656" d="M 175.5,72.5 C 180.636,70.0936 182.969,71.7603 182.5,77.5C 182.167,79.1667 181.833,80.8333 181.5,82.5C 179.328,82.3241 176.995,82.1575 174.5,82C 173.017,76.9735 175.017,74.8069 180.5,75.5C 180.5,74.5 180.5,73.5 180.5,72.5C 178.833,72.5 177.167,72.5 175.5,72.5 Z"/></g>
<g><path style="opacity:1" fill="#464747" d="M 85.5,82.5 C 85.6657,78.1539 85.499,73.8206 85,69.5C 84.4867,70.5266 83.9867,71.5266 83.5,72.5C 82.818,76.1977 81.318,79.531 79,82.5C 77.3333,78.5 75.6667,74.5 74,70.5C 73.6667,74.5 73.3333,78.5 73,82.5C 72.1711,77.467 72.3377,72.467 73.5,67.5C 73.8333,67.6667 74.1667,67.8333 74.5,68C 76.0738,71.5603 77.7405,75.0603 79.5,78.5C 81.2349,74.9605 82.5682,71.2938 83.5,67.5C 84.5,67.5 85.5,67.5 86.5,67.5C 86.8205,72.6946 86.4872,77.6946 85.5,82.5 Z"/></g>
<g><path style="opacity:1" fill="#959090" d="M 85.5,82.5 C 84.8333,79.1667 84.1667,75.8333 83.5,72.5C 83.9867,71.5266 84.4867,70.5266 85,69.5C 85.499,73.8206 85.6657,78.1539 85.5,82.5 Z"/></g>
<g><path style="opacity:1" fill="#8c8888" d="M 119.5,76.5 C 120.919,75.5489 122.585,75.2155 124.5,75.5C 124.768,77.099 124.434,78.4324 123.5,79.5C 123.179,77.9519 122.179,77.2852 120.5,77.5C 120.5,76.8333 120.167,76.5 119.5,76.5 Z"/></g>
<g><path style="opacity:1" fill="#555555" d="M 129.5,71.5 C 136.626,71.3631 136.959,72.0298 130.5,73.5C 132.029,75.1881 133.863,76.5214 136,77.5C 136.822,80.5166 135.655,82.1833 132.5,82.5C 130.933,82.523 129.6,82.023 128.5,81C 136.1,80.3068 136.267,78.4734 129,75.5C 128.421,74.0715 128.588,72.7382 129.5,71.5 Z"/></g>
<g><path style="opacity:1" fill="#989494" d="M 201.5,74.5 C 202.404,75.209 202.737,76.209 202.5,77.5C 199.833,77.5 197.167,77.5 194.5,77.5C 197.159,77.0826 199.492,76.0826 201.5,74.5 Z"/></g>
<g><path style="opacity:1" fill="#4d4d4d" d="M 89.5,71.5 C 91.6404,73.7005 93.1404,76.3672 94,79.5C 94.9562,76.6229 96.2895,73.9562 98,71.5C 97.2346,76.2996 95.7346,80.9663 93.5,85.5C 92.2954,87.1376 90.9621,87.4709 89.5,86.5C 91.5053,85.6628 92.5053,84.1628 92.5,82C 91.5911,78.444 90.5911,74.944 89.5,71.5 Z"/></g>
<g><path style="opacity:1" fill="#eee3e3" d="M 175.5,77.5 C 177.288,77.2148 178.955,77.5481 180.5,78.5C 179.332,80.2174 177.665,80.8841 175.5,80.5C 175.5,79.5 175.5,78.5 175.5,77.5 Z"/></g>
<g><path style="opacity:1" fill="#4e4e4e" d="M 155.5,67.5 C 156.822,67.33 157.989,67.6634 159,68.5C 160.136,72.2432 161.47,75.9099 163,79.5C 164.5,75.8333 166,72.1667 167.5,68.5C 168.325,67.6143 169.325,67.281 170.5,67.5C 170.827,72.544 170.494,77.544 169.5,82.5C 168.675,78.8776 168.175,75.211 168,71.5C 166.591,75.3163 164.924,78.9829 163,82.5C 161.076,78.9829 159.409,75.3163 158,71.5C 157.825,75.211 157.325,78.8776 156.5,82.5C 155.506,77.544 155.173,72.544 155.5,67.5 Z"/></g>
<g><path style="opacity:1" fill="#464646" d="M 119.5,76.5 C 120.167,76.5 120.5,76.8333 120.5,77.5C 119.522,77.811 118.855,78.4777 118.5,79.5C 120.299,80.7879 121.965,80.7879 123.5,79.5C 124.434,78.4324 124.768,77.099 124.5,75.5C 124.586,74.5041 124.252,73.6708 123.5,73C 121.833,72.6667 120.167,72.3333 118.5,72C 120.769,71.2419 122.936,71.4086 125,72.5C 125.667,75.8333 125.667,79.1667 125,82.5C 122.703,82.4609 120.37,82.1276 118,81.5C 117.123,79.3258 117.623,77.6591 119.5,76.5 Z"/></g>
<g><path style="opacity:1" fill="#e5dbdb" d="M 120.5,77.5 C 122.179,77.2852 123.179,77.9519 123.5,79.5C 121.965,80.7879 120.299,80.7879 118.5,79.5C 118.855,78.4777 119.522,77.811 120.5,77.5 Z"/></g>
</svg>
