<?xml version="1.0" encoding="UTF-8"?>
<!DOCTYPE svg PUBLIC "-//W3C//DTD SVG 1.1//EN" "http://www.w3.org/Graphics/SVG/1.1/DTD/svg11.dtd">
<svg xmlns="http://www.w3.org/2000/svg" version="1.1" width="278px" height="100px" style="shape-rendering:geometricPrecision; text-rendering:geometricPrecision; image-rendering:optimizeQuality; fill-rule:evenodd; clip-rule:evenodd" xmlns:xlink="http://www.w3.org/1999/xlink">
<g><path style="opacity:0.735" fill="#787676" d="M 47.5,20.5 C 41.1667,20.5 34.8333,20.5 28.5,20.5C 34.8466,17.9936 41.18,17.9936 47.5,20.5 Z"/></g>
<g><path style="opacity:0.946" fill="#494a4a" d="M 28.5,20.5 C 34.8333,20.5 41.1667,20.5 47.5,20.5C 48.7759,21.3864 48.7759,22.3864 47.5,23.5C 40.1648,24.3908 32.8314,24.0574 25.5,22.5C 26.0047,21.0815 27.0047,20.4148 28.5,20.5 Z"/></g>
<g><path style="opacity:1" fill="#484949" d="M 121.5,20.5 C 121.5,30.8333 121.5,41.1667 121.5,51.5C 120.516,54.0704 119.349,54.0704 118,51.5C 117.333,41.1667 117.333,30.8333 118,20.5C 119.292,19.2089 120.458,19.2089 121.5,20.5 Z"/></g>
<g><path style="opacity:0.994" fill="#4d4d4d" d="M 147.5,52.5 C 146.524,41.915 146.191,31.2483 146.5,20.5C 147.542,19.2089 148.708,19.2089 150,20.5C 150.667,30.8333 150.667,41.1667 150,51.5C 149.162,52.999 148.329,53.3324 147.5,52.5 Z"/></g>
<g><path style="opacity:0.996" fill="#464747" d="M 168.5,20.5 C 169.5,20.5 170.5,20.5 171.5,20.5C 171.5,30.8333 171.5,41.1667 171.5,51.5C 169.511,52.8866 167.678,52.5532 166,50.5C 161.667,44.1667 157.333,37.8333 153,31.5C 152.233,28.0967 153.399,27.0967 156.5,28.5C 159.585,32.2458 162.251,36.2458 164.5,40.5C 164.427,42.0269 165.094,43.0269 166.5,43.5C 166.783,44.2891 167.283,44.9558 168,45.5C 168.5,37.1733 168.666,28.84 168.5,20.5 Z"/></g>
<g><path style="opacity:0.997" fill="#424343" d="M 240.5,19.5 C 241.492,19.3284 242.158,19.6618 242.5,20.5C 242.5,23.1667 242.5,25.8333 242.5,28.5C 244.5,28.5 246.5,28.5 248.5,28.5C 247.082,30.3079 245.082,30.9746 242.5,30.5C 242.181,35.3633 242.514,40.03 243.5,44.5C 244.812,46.641 246.645,48.3076 249,49.5C 249.783,51.3185 249.283,52.6518 247.5,53.5C 243.111,52.4449 240.445,49.7783 239.5,45.5C 239.197,36.7489 239.53,28.0823 240.5,19.5 Z"/></g>
<g><path style="opacity:0.545" fill="#8b8787" d="M 146.5,20.5 C 146.191,31.2483 146.524,41.915 147.5,52.5C 146.172,47.5442 145.505,42.2109 145.5,36.5C 145.501,30.9892 145.834,25.6559 146.5,20.5 Z"/></g>
<g><path style="opacity:0.233" fill="#c3bbbb" d="M 168.5,20.5 C 168.666,28.84 168.5,37.1733 168,45.5C 167.283,44.9558 166.783,44.2891 166.5,43.5C 167.167,35.8333 167.833,28.1667 168.5,20.5 Z"/></g>
<g><path style="opacity:0.623" fill="#807d7d" d="M 168.5,20.5 C 169.568,19.5655 170.901,19.2322 172.5,19.5C 172.828,30.3464 172.494,41.0131 171.5,51.5C 171.5,41.1667 171.5,30.8333 171.5,20.5C 170.5,20.5 169.5,20.5 168.5,20.5 Z"/></g>
<g><path style="opacity:0.994" fill="#565656" d="M 56.5,51.5 C 56.0269,50.0937 55.0269,49.427 53.5,49.5C 49.9114,45.5658 48.7448,40.8991 50,35.5C 50.2784,34.5842 50.7784,33.9175 51.5,33.5C 52.9063,33.0269 53.573,32.0269 53.5,30.5C 55.0269,30.573 56.0269,29.9063 56.5,28.5C 64.0534,24.9627 69.8867,26.9627 74,34.5C 75.7156,40.3289 75.8823,46.1623 74.5,52C 72.6332,52.7112 71.1332,52.2112 70,50.5C 65.6112,53.8227 61.1112,54.156 56.5,51.5 Z M 58.5,47.5 C 57.5,45.8333 56.1667,44.5 54.5,43.5C 53.8209,34.3347 57.8209,30.8347 66.5,33C 72.2051,38.8143 71.5384,43.8143 64.5,48C 62.4546,48.4901 60.4546,48.3235 58.5,47.5 Z"/></g>
<g><path style="opacity:0.997" fill="#5e5d5d" d="M 123.5,40.5 C 123.5,39.5 123.5,38.5 123.5,37.5C 125.915,33.5781 128.915,30.0781 132.5,27C 135.667,26.1667 136.833,27.3333 136,30.5C 133.618,33.4272 131.118,36.2605 128.5,39C 132.393,42.39 135.727,46.2233 138.5,50.5C 137.392,53.5032 135.725,54.0032 133.5,52C 129.584,48.5903 126.251,44.757 123.5,40.5 Z"/></g>
<g><path style="opacity:0.993" fill="#535353" d="M 205.5,41.5 C 198.833,41.5 192.167,41.5 185.5,41.5C 185.263,42.791 185.596,43.791 186.5,44.5C 188.492,46.6729 190.992,48.0063 194,48.5C 196.667,47.1667 199.333,45.8333 202,44.5C 204.818,46.533 204.651,48.6996 201.5,51C 189.961,56.0407 182.961,52.374 180.5,40C 182.502,28.9806 188.836,24.9806 199.5,28C 205.01,31.1686 207.01,35.6686 205.5,41.5 Z M 201.5,37.5 C 196.056,38.1083 191.056,37.4417 186.5,35.5C 192.301,29.8644 197.301,30.5311 201.5,37.5 Z"/></g>
<g><path style="opacity:0.992" fill="#5b5b5b" d="M 219.5,26.5 C 225.582,25.9282 228.916,28.5949 229.5,34.5C 226.482,34.4935 223.816,33.4935 221.5,31.5C 220.328,31.9186 219.328,32.5853 218.5,33.5C 222.349,36.0194 226.183,38.686 230,41.5C 232.332,48.5414 229.666,52.5414 222,53.5C 216.235,53.2357 213.402,50.2357 213.5,44.5C 214.873,44.3433 216.207,44.51 217.5,45C 220.5,49.6667 223.5,49.6667 226.5,45C 223.178,42.4417 219.511,40.4417 215.5,39C 212.146,33.2355 213.48,29.0688 219.5,26.5 Z"/></g>
<g><path style="opacity:0.51" fill="#989494" d="M 242.5,20.5 C 243.468,22.6074 243.802,24.9407 243.5,27.5C 245.415,27.2155 247.081,27.5489 248.5,28.5C 246.5,28.5 244.5,28.5 242.5,28.5C 242.5,25.8333 242.5,23.1667 242.5,20.5 Z"/></g>
<g><path style="opacity:0.936" fill="#cdc2c0" d="M 104.5,28.5 C 105.031,30.5441 106.198,32.2107 108,33.5C 108.667,35.5 108.667,37.5 108,39.5C 102.557,29.7177 96.2238,29.051 89,37.5C 90.1072,44.1466 93.2739,45.1466 98.5,40.5C 99.5,40.8333 100.167,41.5 100.5,42.5C 98.2498,46.4592 94.9165,47.9592 90.5,47C 87.8084,44.4428 85.475,41.6095 83.5,38.5C 86.189,35.4802 88.8556,32.4802 91.5,29.5C 91.6107,28.8826 91.944,28.3826 92.5,28C 96.6888,27.1881 100.689,27.3547 104.5,28.5 Z"/></g>
<g><path style="opacity:0.871" fill="#4d4d4d" d="M 38.5,51.5 C 37.1667,52.8333 35.8333,52.8333 34.5,51.5C 34.5,43.5 34.5,35.5 34.5,27.5C 35.8333,27.5 37.1667,27.5 38.5,27.5C 39.8333,35.5 39.8333,43.5 38.5,51.5 Z"/></g>
<g><path style="opacity:0.655" fill="#a59f9f" d="M 56.5,28.5 C 56.0269,29.9063 55.0269,30.573 53.5,30.5C 53.9731,29.0937 54.9731,28.427 56.5,28.5 Z"/></g>
<g><path style="opacity:0.421" fill="#a49e9e" d="M 121.5,20.5 C 122.167,26.1667 122.833,31.8333 123.5,37.5C 123.5,38.5 123.5,39.5 123.5,40.5C 122.833,44.1667 122.167,47.8333 121.5,51.5C 121.5,41.1667 121.5,30.8333 121.5,20.5 Z"/></g>
<g><path style="opacity:0.43" fill="#a09b9b" d="M 240.5,19.5 C 239.53,28.0823 239.197,36.7489 239.5,45.5C 238.834,41.3467 238.501,37.0134 238.5,32.5C 238.508,27.7784 239.175,23.4451 240.5,19.5 Z"/></g>
<g><path style="opacity:0.432" fill="#959090" d="M 248.5,28.5 C 249.404,29.209 249.737,30.209 249.5,31.5C 247.533,31.2606 245.699,31.5939 244,32.5C 243.501,36.4862 243.334,40.4862 243.5,44.5C 242.514,40.03 242.181,35.3633 242.5,30.5C 245.082,30.9746 247.082,30.3079 248.5,28.5 Z"/></g>
<g><path style="opacity:0.435" fill="#a8a2a2" d="M 53.5,30.5 C 53.573,32.0269 52.9063,33.0269 51.5,33.5C 51.427,31.9731 52.0937,30.9731 53.5,30.5 Z"/></g>
<g><path style="opacity:0.95" fill="#d1c6c3" d="M 108.5,44.5 C 106.116,47.391 103.449,50.2243 100.5,53C 96.074,54.6517 91.7407,54.8184 87.5,53.5C 84.5988,50.3691 83.4321,46.7024 84,42.5C 90.1511,51.6589 96.6511,51.8256 103.5,43C 102.359,40.6921 100.692,38.8587 98.5,37.5C 96.5717,39.5781 94.405,40.2448 92,39.5C 93.0868,34.4569 96.2535,32.6236 101.5,34C 104.474,37.1278 106.807,40.6278 108.5,44.5 Z"/></g>
<g><path style="opacity:0.244" fill="#c3baba" d="M 186.5,35.5 C 191.056,37.4417 196.056,38.1083 201.5,37.5C 196.36,38.4881 191.026,38.8214 185.5,38.5C 185.263,37.209 185.596,36.209 186.5,35.5 Z"/></g>
<g><path style="opacity:0.071" fill="#eadfdf" d="M 104.5,28.5 C 106.129,29.6253 107.629,30.9586 109,32.5C 109.812,36.6888 109.645,40.6888 108.5,44.5C 106.807,40.6278 104.474,37.1278 101.5,34C 96.2535,32.6236 93.0868,34.4569 92,39.5C 94.405,40.2448 96.5717,39.5781 98.5,37.5C 100.692,38.8587 102.359,40.6921 103.5,43C 96.6511,51.8256 90.1511,51.6589 84,42.5C 83.4321,46.7024 84.5988,50.3691 87.5,53.5C 85.1119,52.7813 83.6119,51.1146 83,48.5C 82.3333,44.5 82.3333,40.5 83,36.5C 85.4356,33.5532 88.2689,31.2199 91.5,29.5C 88.8556,32.4802 86.189,35.4802 83.5,38.5C 85.475,41.6095 87.8084,44.4428 90.5,47C 94.9165,47.9592 98.2498,46.4592 100.5,42.5C 100.167,41.5 99.5,40.8333 98.5,40.5C 93.2739,45.1466 90.1072,44.1466 89,37.5C 96.2238,29.051 102.557,29.7177 108,39.5C 108.667,37.5 108.667,35.5 108,33.5C 106.198,32.2107 105.031,30.5441 104.5,28.5 Z"/></g>
<g><path style="opacity:0.25" fill="#c1b9b9" d="M 205.5,41.5 C 198.935,41.8511 192.601,42.8511 186.5,44.5C 185.596,43.791 185.263,42.791 185.5,41.5C 192.167,41.5 198.833,41.5 205.5,41.5 Z"/></g>
<g><path style="opacity:0.486" fill="#9d9898" d="M 164.5,40.5 C 165.906,40.9731 166.573,41.9731 166.5,43.5C 165.094,43.0269 164.427,42.0269 164.5,40.5 Z"/></g>
<g><path style="opacity:0.561" fill="#a9a3a3" d="M 54.5,43.5 C 56.1667,44.5 57.5,45.8333 58.5,47.5C 56.1667,47.1667 54.8333,45.8333 54.5,43.5 Z"/></g>
<g><path style="opacity:0.322" fill="#b4adad" d="M 53.5,49.5 C 55.0269,49.427 56.0269,50.0937 56.5,51.5C 54.9731,51.573 53.9731,50.9063 53.5,49.5 Z"/></g>
<g><path style="opacity:0.011" fill="#e7dddd" d="M 34.5,51.5 C 35.8333,52.8333 37.1667,52.8333 38.5,51.5C 37.7961,53.3442 36.4628,53.8442 34.5,53C 33.2617,52.31 33.2617,51.81 34.5,51.5 Z"/></g>
<g><path style="opacity:0.957" fill="#3d3e3e" d="M 140.5,66.5 C 140.335,69.8499 140.502,73.1832 141,76.5C 141.717,75.9558 142.217,75.2891 142.5,74.5C 143.404,75.209 143.737,76.209 143.5,77.5C 142.5,77.5 141.5,77.5 140.5,77.5C 140.5,79.1667 140.5,80.8333 140.5,82.5C 140.167,82.5 139.833,82.5 139.5,82.5C 139.5,77.1667 139.5,71.8333 139.5,66.5C 139.833,65.1667 140.167,65.1667 140.5,66.5 Z"/></g>
<g><path style="opacity:0.411" fill="#9f9a9a" d="M 140.5,66.5 C 141.167,69.1667 141.833,71.8333 142.5,74.5C 142.217,75.2891 141.717,75.9558 141,76.5C 140.502,73.1832 140.335,69.8499 140.5,66.5 Z"/></g>
<g><path style="opacity:0.952" fill="#686767" d="M 85.5,82.5 C 85.7257,77.4376 85.3924,72.4376 84.5,67.5C 85.1894,66.2264 86.0228,66.2264 87,67.5C 87.1667,70 87.3333,72.5 87.5,75C 87.4752,77.9294 86.8086,80.4294 85.5,82.5 Z"/></g>
<g><path style="opacity:0.893" fill="#605f5f" d="M 115.5,67.5 C 114.167,68.1667 112.833,68.8333 111.5,69.5C 110.676,73.3123 110.176,77.3123 110,81.5C 109.501,77.8484 109.335,74.1817 109.5,70.5C 107.958,69.8365 106.291,69.1698 104.5,68.5C 104.709,67.914 105.043,67.414 105.5,67C 109.027,66.1925 112.36,66.3592 115.5,67.5 Z"/></g>
<g><path style="opacity:0.452" fill="#9c9797" d="M 115.5,67.5 C 116.043,67.56 116.376,67.8933 116.5,68.5C 114.955,69.4519 113.288,69.7852 111.5,69.5C 112.833,68.8333 114.167,68.1667 115.5,67.5 Z"/></g>
<g><path style="opacity:0.939" fill="#3f4040" d="M 187.5,68.5 C 187.5,69.5 187.5,70.5 187.5,71.5C 191.5,71.8333 191.5,72.1667 187.5,72.5C 187.194,75.3854 187.527,78.0521 188.5,80.5C 189.167,81.1667 189.833,81.8333 190.5,82.5C 188.901,82.7678 187.568,82.4345 186.5,81.5C 186.94,77.8215 186.273,74.4882 184.5,71.5C 186.048,71.1788 186.715,70.1788 186.5,68.5C 186.833,67.1667 187.167,67.1667 187.5,68.5 Z"/></g>
<g><path style="opacity:0.642" fill="#969292" d="M 111.5,69.5 C 111.937,74.3614 111.437,79.0281 110,83.5C 108.897,81.3706 108.397,79.0373 108.5,76.5C 108.505,74.3035 108.838,72.3035 109.5,70.5C 109.335,74.1817 109.501,77.8484 110,81.5C 110.176,77.3123 110.676,73.3123 111.5,69.5 Z"/></g>
<g><path style="opacity:0.006" fill="#e8dede" d="M 175.5,71.5 C 177.167,72.1667 178.833,72.8333 180.5,73.5C 177.833,73.8333 177.833,74.1667 180.5,74.5C 179.791,75.404 178.791,75.7373 177.5,75.5C 177.167,74.1667 176.833,74.1667 176.5,75.5C 175.833,75.8333 175.167,76.1667 174.5,76.5C 174.5,77.1667 174.167,77.5 173.5,77.5C 172.167,77.8333 172.167,78.1667 173.5,78.5C 173.5,78.8333 173.5,79.1667 173.5,79.5C 171.902,77.1433 170.902,74.4766 170.5,71.5C 170.5,71.1667 170.5,70.8333 170.5,70.5C 171.15,70.1961 171.817,69.8627 172.5,69.5C 173.265,70.6119 174.265,71.2786 175.5,71.5 Z"/></g>
<g><path style="opacity:0.231" fill="#c6bebe" d="M 91.5,72.5 C 90.0755,70.9689 89.4088,71.3023 89.5,73.5C 88.596,72.791 88.2627,71.791 88.5,70.5C 90.1788,70.2852 91.1788,70.9519 91.5,72.5 Z"/></g>
<g><path style="opacity:0.224" fill="#c7bebe" d="M 98.5,73.5 C 98.5912,71.3023 97.9245,70.9689 96.5,72.5C 96.8212,70.9519 97.8212,70.2852 99.5,70.5C 99.7373,71.791 99.404,72.791 98.5,73.5 Z"/></g>
<g><path style="opacity:0.439" fill="#aea7a7" d="M 124.5,71.5 C 122.801,71.3398 121.134,71.5065 119.5,72C 121.058,72.21 122.391,72.71 123.5,73.5C 121.25,73.8186 119.25,73.3186 117.5,72C 119.819,70.2721 122.153,70.1054 124.5,71.5 Z"/></g>
<g><path style="opacity:0.659" fill="#a39d9d" d="M 186.5,68.5 C 186.715,70.1788 186.048,71.1788 184.5,71.5C 184.932,70.2905 185.599,69.2905 186.5,68.5 Z"/></g>
<g><path style="opacity:0.008" fill="#e3d9d9" d="M 187.5,68.5 C 189.438,70.2455 191.771,71.2455 194.5,71.5C 193.833,72.5 193.167,73.5 192.5,74.5C 191.11,77.0154 189.777,79.0154 188.5,80.5C 187.527,78.0521 187.194,75.3854 187.5,72.5C 191.5,72.1667 191.5,71.8333 187.5,71.5C 187.5,70.5 187.5,69.5 187.5,68.5 Z"/></g>
<g><path style="opacity:0.005" fill="#d8cece" d="M 129.5,71.5 C 128.167,73.1667 128.167,74.8333 129.5,76.5C 128.778,76.9175 128.278,77.5842 128,78.5C 127.667,76.8333 127.333,75.1667 127,73.5C 126.819,76.6946 126.319,79.6946 125.5,82.5C 125.5,79.1667 125.5,75.8333 125.5,72.5C 126.708,71.7659 128.041,71.4326 129.5,71.5 Z"/></g>
<g><path style="opacity:0.005" fill="#dad1d1" d="M 139.5,66.5 C 139.5,71.8333 139.5,77.1667 139.5,82.5C 138.686,80.369 138.186,78.0356 138,75.5C 137.617,76.056 137.117,76.3893 136.5,76.5C 136.158,75.6618 135.492,75.3284 134.5,75.5C 134.611,74.8826 134.944,74.3826 135.5,74C 133.866,73.5065 132.199,73.3398 130.5,73.5C 132.167,72.8333 133.833,72.1667 135.5,71.5C 136.458,71.9528 137.292,72.6195 138,73.5C 138.186,70.9644 138.686,68.631 139.5,66.5 Z"/></g>
<g><path style="opacity:0.006" fill="#d3caca" d="M 175.5,71.5 C 178.396,70.2248 181.396,70.2248 184.5,71.5C 186.273,74.4882 186.94,77.8215 186.5,81.5C 185.683,79.0314 185.183,76.3647 185,73.5C 184.667,75.8333 184.333,78.1667 184,80.5C 183.817,77.6353 183.317,74.9686 182.5,72.5C 180.283,71.6314 177.95,71.298 175.5,71.5 Z"/></g>
<g><path style="opacity:0.972" fill="#3e3f3f" d="M 124.5,71.5 C 125.167,71.5 125.5,71.8333 125.5,72.5C 125.5,75.8333 125.5,79.1667 125.5,82.5C 124.833,82.5 124.5,82.1667 124.5,81.5C 124.167,80.8333 123.833,80.1667 123.5,79.5C 122.672,77.2851 122.672,75.2851 123.5,73.5C 122.391,72.71 121.058,72.21 119.5,72C 121.134,71.5065 122.801,71.3398 124.5,71.5 Z"/></g>
<g><path style="opacity:0.851" fill="#888585" d="M 84.5,67.5 C 85.3924,72.4376 85.7257,77.4376 85.5,82.5C 84.6805,79.6946 84.1805,76.6946 84,73.5C 83.2952,76.4757 82.1286,79.1423 80.5,81.5C 79.8333,80.1667 79.1667,78.8333 78.5,77.5C 80.5881,74.6697 82.5881,71.3364 84.5,67.5 Z"/></g>
<g><path style="opacity:0.678" fill="#908b8b" d="M 123.5,73.5 C 122.672,75.2851 122.672,77.2851 123.5,79.5C 122.947,77.4482 121.947,77.1148 120.5,78.5C 119.662,78.8417 119.328,79.5084 119.5,80.5C 118.833,79.5 118.167,78.5 117.5,77.5C 119.364,75.9862 121.364,74.6528 123.5,73.5 Z M 120.5,78.5 C 121.947,77.1148 122.947,77.4482 123.5,79.5C 123.167,79.5 122.833,79.5 122.5,79.5C 122.158,78.6618 121.492,78.3284 120.5,78.5 Z"/></g>
<g><path style="opacity:0.965" fill="#686666" d="M 135.5,71.5 C 133.833,72.1667 132.167,72.8333 130.5,73.5C 131.514,74.6737 132.847,75.3404 134.5,75.5C 134.842,76.3382 135.508,76.6716 136.5,76.5C 136.739,78.4672 136.406,80.3005 135.5,82C 133.19,82.4966 130.857,82.6633 128.5,82.5C 128.351,81.448 128.517,80.448 129,79.5C 136.161,80.4591 136.327,79.4591 129.5,76.5C 128.167,74.8333 128.167,73.1667 129.5,71.5C 131.5,70.1667 133.5,70.1667 135.5,71.5 Z"/></g>
<g><path style="opacity:0.504" fill="#949090" d="M 195.5,73.5 C 195.369,74.2389 195.536,74.9056 196,75.5C 197.302,74.9152 198.469,74.2485 199.5,73.5C 200.268,74.2625 200.768,75.2625 201,76.5C 201.483,75.552 201.649,74.552 201.5,73.5C 202.434,74.5676 202.768,75.901 202.5,77.5C 200.833,77.5 199.167,77.5 197.5,77.5C 197.167,77.5 196.833,77.5 196.5,77.5C 196.167,77.5 195.833,77.5 195.5,77.5C 195.167,77.5 194.833,77.5 194.5,77.5C 194.232,75.901 194.566,74.5676 195.5,73.5 Z M 195.5,73.5 C 196.833,73.5 198.167,73.5 199.5,73.5C 198.469,74.2485 197.302,74.9152 196,75.5C 195.536,74.9056 195.369,74.2389 195.5,73.5 Z"/></g>
<g><path style="opacity:0.031" fill="#ded4d4" d="M 90.5,76.5 C 91.3382,76.8417 91.6716,77.5084 91.5,78.5C 90.603,77.4019 89.7697,77.4019 89,78.5C 88.4719,77.184 88.9719,76.5173 90.5,76.5 Z"/></g>
<g><path style="opacity:0.004" fill="#f0e6e5" d="M 112.5,77.5 C 113.598,78.6009 113.765,79.9343 113,81.5C 112.51,80.2068 112.343,78.8734 112.5,77.5 Z"/></g>
<g><path style="opacity:0.882" fill="#605f5f" d="M 160.5,72.5 C 160.328,73.4916 160.662,74.1583 161.5,74.5C 161.5,75.1667 161.833,75.5 162.5,75.5C 162.328,76.4916 162.662,77.1583 163.5,77.5C 164.674,76.4863 165.34,75.153 165.5,73.5C 165.542,70.4148 166.875,68.0814 169.5,66.5C 170.429,67.6888 170.762,69.0222 170.5,70.5C 170.5,70.8333 170.5,71.1667 170.5,71.5C 170.823,75.226 170.489,78.8927 169.5,82.5C 168.571,81.3112 168.238,79.9778 168.5,78.5C 168.5,77.5 168.5,76.5 168.5,75.5C 168.167,71.5 167.833,71.5 167.5,75.5C 166.833,75.5 166.5,75.8333 166.5,76.5C 165.655,77.6715 164.989,79.0048 164.5,80.5C 163.5,83.1667 162.5,83.1667 161.5,80.5C 160.736,77.9823 159.736,75.649 158.5,73.5C 157.58,72.9326 157.246,73.5992 157.5,75.5C 157.5,76.1667 157.5,76.8333 157.5,77.5C 157.785,79.288 157.452,80.9547 156.5,82.5C 155.505,77.2079 155.172,71.8746 155.5,66.5C 159.009,66.8079 160.676,68.8079 160.5,72.5 Z"/></g>
<g><path style="opacity:0.008" fill="#eae0e0" d="M 167.5,75.5 C 167.833,75.5 168.167,75.5 168.5,75.5C 168.5,76.5 168.5,77.5 168.5,78.5C 167.533,79.8062 166.199,80.4729 164.5,80.5C 164.989,79.0048 165.655,77.6715 166.5,76.5C 167.167,76.5 167.5,76.1667 167.5,75.5 Z"/></g>
<g><path style="opacity:0.01" fill="#e9dede" d="M 158.5,73.5 C 159.736,75.649 160.736,77.9823 161.5,80.5C 160.85,80.8039 160.183,81.1373 159.5,81.5C 158.828,80.0508 158.161,78.7175 157.5,77.5C 157.5,76.8333 157.5,76.1667 157.5,75.5C 158.338,75.1583 158.672,74.4916 158.5,73.5 Z"/></g>
<g><path style="opacity:0.008" fill="#ded5d5" d="M 165.5,73.5 C 165.34,75.153 164.674,76.4863 163.5,77.5C 163.672,76.5084 163.338,75.8417 162.5,75.5C 162.539,73.7761 162.206,73.4427 161.5,74.5C 160.662,74.1583 160.328,73.4916 160.5,72.5C 161.117,72.3893 161.617,72.056 162,71.5C 162.816,72.8228 163.983,73.4894 165.5,73.5 Z"/></g>
<g><path style="opacity:0.004" fill="#eadfdf" d="M 194.5,77.5 C 194.833,77.5 195.167,77.5 195.5,77.5C 195.833,78.8333 196.167,78.8333 196.5,77.5C 196.833,77.5 197.167,77.5 197.5,77.5C 199.076,78.1429 200.41,79.1429 201.5,80.5C 200.833,80.5 200.167,80.5 199.5,80.5C 198.5,79.1667 197.5,79.1667 196.5,80.5C 195.094,80.0269 194.427,79.0269 194.5,77.5 Z"/></g>
<g><path style="opacity:0.761" fill="#848181" d="M 140.5,82.5 C 140.5,80.8333 140.5,79.1667 140.5,77.5C 141.5,77.5 142.5,77.5 143.5,77.5C 143.737,76.209 143.404,75.209 142.5,74.5C 143.696,71.7792 145.696,70.6126 148.5,71C 147.36,72.9734 146.027,74.8067 144.5,76.5C 149.874,83.4418 149.041,84.1084 142,78.5C 141.79,80.0581 141.29,81.3915 140.5,82.5 Z"/></g>
<g><path style="opacity:0.967" fill="#616060" d="M 201.5,73.5 C 201.649,74.552 201.483,75.552 201,76.5C 200.768,75.2625 200.268,74.2625 199.5,73.5C 198.167,73.5 196.833,73.5 195.5,73.5C 194.566,74.5676 194.232,75.901 194.5,77.5C 194.427,79.0269 195.094,80.0269 196.5,80.5C 197.5,80.5 198.5,80.5 199.5,80.5C 200.167,80.5 200.833,80.5 201.5,80.5C 195.051,84.4217 192.051,82.4217 192.5,74.5C 193.167,73.5 193.833,72.5 194.5,71.5C 196.402,70.4891 198.402,70.3224 200.5,71C 201.252,71.6708 201.586,72.5041 201.5,73.5 Z M 195.5,73.5 C 196.833,73.5 198.167,73.5 199.5,73.5C 198.469,74.2485 197.302,74.9152 196,75.5C 195.536,74.9056 195.369,74.2389 195.5,73.5 Z"/></g>
<g><path style="opacity:0.925" fill="#6f6d6d" d="M 91.5,72.5 C 92.5942,74.3594 93.4275,76.3594 94,78.5C 94.9383,76.5115 95.7717,74.5115 96.5,72.5C 97.9245,70.9689 98.5912,71.3023 98.5,73.5C 97.5616,78.4858 95.5616,82.9858 92.5,87C 91.0563,87.7805 89.723,87.6139 88.5,86.5C 92.2843,84.8093 93.2843,82.1426 91.5,78.5C 91.6716,77.5084 91.3382,76.8417 90.5,76.5C 89.8902,75.609 89.5569,74.609 89.5,73.5C 89.4088,71.3023 90.0755,70.9689 91.5,72.5 Z"/></g>
<g><path style="opacity:0.898" fill="#5c5b5b" d="M 175.5,71.5 C 177.95,71.298 180.283,71.6314 182.5,72.5C 182.5,75.8333 182.5,79.1667 182.5,82.5C 179.5,82.5 176.5,82.5 173.5,82.5C 173.5,81.5 173.5,80.5 173.5,79.5C 173.5,79.1667 173.5,78.8333 173.5,78.5C 173.5,78.1667 173.5,77.8333 173.5,77.5C 174.167,77.5 174.5,77.1667 174.5,76.5C 175.167,76.1667 175.833,75.8333 176.5,75.5C 176.833,75.5 177.167,75.5 177.5,75.5C 178.791,75.7373 179.791,75.404 180.5,74.5C 180.5,74.1667 180.5,73.8333 180.5,73.5C 178.833,72.8333 177.167,72.1667 175.5,71.5 Z"/></g>
<g><path style="opacity:0.009" fill="#ebe0e0" d="M 175.5,78.5 C 175.842,77.6618 176.508,77.3284 177.5,77.5C 178.209,78.404 179.209,78.7373 180.5,78.5C 180.167,79.5 179.5,80.1667 178.5,80.5C 178.158,79.6618 177.492,79.3284 176.5,79.5C 176.5,78.8333 176.167,78.5 175.5,78.5 Z"/></g>
<g><path style="opacity:0.898" fill="#626161" d="M 78.5,77.5 C 79.1667,78.8333 79.8333,80.1667 80.5,81.5C 79.791,82.404 78.791,82.7373 77.5,82.5C 77.5,81.5 77.5,80.5 77.5,79.5C 77.3404,77.847 76.6737,76.5137 75.5,75.5C 75.5,75.1667 75.5,74.8333 75.5,74.5C 75.1077,72.8211 74.6077,71.1545 74,69.5C 73.501,73.8206 73.3343,78.1539 73.5,82.5C 72.1914,80.4294 71.5248,77.9294 71.5,75C 71.6667,72.5 71.8333,70 72,67.5C 73,66.1667 74,66.1667 75,67.5C 76.8681,70.6051 78.0348,73.9385 78.5,77.5 Z"/></g>
<g><path style="opacity:0.01" fill="#d9d0d0" d="M 75.5,74.5 C 74.1667,74.8333 74.1667,75.1667 75.5,75.5C 76.6737,76.5137 77.3404,77.847 77.5,79.5C 76.5,79.5 75.5,79.5 74.5,79.5C 74.7373,80.791 74.404,81.791 73.5,82.5C 73.3343,78.1539 73.501,73.8206 74,69.5C 74.6077,71.1545 75.1077,72.8211 75.5,74.5 Z"/></g>
<g><path style="opacity:0.455" fill="#8a8686" d="M 122.5,79.5 C 122.833,79.5 123.167,79.5 123.5,79.5C 123.833,80.1667 124.167,80.8333 124.5,81.5C 123.609,82.1098 122.609,82.4431 121.5,82.5C 120.833,81.8333 120.167,81.1667 119.5,80.5C 120.791,80.7373 121.791,80.404 122.5,79.5 Z"/></g>
<g><path style="opacity:0.812" fill="#5e5d5d" d="M 117.5,77.5 C 118.167,78.5 118.833,79.5 119.5,80.5C 120.167,81.1667 120.833,81.8333 121.5,82.5C 116.973,82.9949 115.639,81.3282 117.5,77.5 Z"/></g>
<g><path style="opacity:0.302" fill="#aba4a4" d="M 188.5,80.5 C 189.675,80.281 190.675,80.6143 191.5,81.5C 191.376,82.1067 191.043,82.44 190.5,82.5C 189.833,81.8333 189.167,81.1667 188.5,80.5 Z"/></g>
</svg>
